<svg version="1.1" id="Layer_1" xmlns="http://www.w3.org/2000/svg" xmlns:xlink="http://www.w3.org/1999/xlink" x="0px" y="0px"
	 width="100%" viewBox="0 0 1385 1385" enable-background="new 0 0 1385 1385" xml:space="preserve">
<path fill="#FFFFFF" opacity="1.000000" stroke="none" 
	d="
M777.000000,1386.000000 
	C518.000061,1386.000000 259.500092,1386.000000 1.000104,1386.000000 
	C1.000069,924.333435 1.000069,462.666931 1.000035,1.000290 
	C462.666473,1.000193 924.332947,1.000193 1385.999512,1.000097 
	C1385.999756,462.666382 1385.999756,924.332764 1385.999878,1385.999512 
	C1183.166626,1386.000000 980.333313,1386.000000 777.000000,1386.000000 
M789.499939,1160.397095 
	C904.320801,1160.396729 1019.141724,1160.346558 1133.962524,1160.445557 
	C1152.926147,1160.461914 1169.870361,1155.240356 1183.657837,1142.035889 
	C1198.217041,1128.092285 1204.835938,1110.809204 1204.819946,1090.490967 
	C1204.675781,907.343445 1204.739014,724.195679 1204.736206,541.047974 
	C1204.735352,487.886871 1205.101440,434.721741 1204.547607,381.566315 
	C1204.266113,354.561859 1190.774414,334.865387 1166.926880,322.419678 
	C1156.836548,317.153687 1145.862549,315.543274 1134.519287,315.545990 
	C938.039612,315.593292 741.559998,315.558472 545.080383,315.679596 
	C540.112671,315.682648 536.226807,314.527008 533.385132,310.578461 
	C526.686401,301.270630 519.844788,292.050201 513.531616,282.483856 
	C503.535522,267.336945 494.380829,251.566727 480.507935,239.433350 
	C471.733063,231.758774 461.718353,226.967834 449.754517,226.973160 
	C381.928467,227.003326 314.102081,226.894562 246.276550,227.083771 
	C230.321533,227.128281 216.467026,233.378967 204.691956,244.033646 
	C188.749771,258.458923 182.238708,276.616241 182.250916,297.997589 
	C182.400330,559.637085 182.348419,821.276672 182.352875,1082.916260 
	C182.352951,1087.748901 182.170639,1092.596313 182.475143,1097.411377 
	C183.610367,1115.363159 190.979828,1130.493286 204.123215,1142.629028 
	C217.877380,1155.328857 234.456863,1160.455078 253.055344,1160.446411 
	C431.536804,1160.363647 610.018372,1160.396484 789.499939,1160.397095 
z"/>
<path fill="#049DFF" opacity="1.000000" stroke="none" 
	d="
M788.999878,1160.396729 
	C610.018372,1160.396484 431.536804,1160.363647 253.055344,1160.446411 
	C234.456863,1160.455078 217.877380,1155.328857 204.123215,1142.629028 
	C190.979828,1130.493286 183.610367,1115.363159 182.475143,1097.411377 
	C182.170639,1092.596313 182.352951,1087.748901 182.352875,1082.916260 
	C182.348419,821.276672 182.400330,559.637085 182.250916,297.997589 
	C182.238708,276.616241 188.749771,258.458923 204.691956,244.033646 
	C216.467026,233.378967 230.321533,227.128281 246.276550,227.083771 
	C314.102081,226.894562 381.928467,227.003326 449.754517,226.973160 
	C461.718353,226.967834 471.733063,231.758774 480.507935,239.433350 
	C494.380829,251.566727 503.535522,267.336945 513.531616,282.483856 
	C519.844788,292.050201 526.686401,301.270630 533.385132,310.578461 
	C536.226807,314.527008 540.112671,315.682648 545.080383,315.679596 
	C741.559998,315.558472 938.039612,315.593292 1134.519287,315.545990 
	C1145.862549,315.543274 1156.836548,317.153687 1166.926880,322.419678 
	C1190.774414,334.865387 1204.266113,354.561859 1204.547607,381.566315 
	C1205.101440,434.721741 1204.735352,487.886871 1204.736206,541.047974 
	C1204.739014,724.195679 1204.675781,907.343445 1204.819946,1090.490967 
	C1204.835938,1110.809204 1198.217041,1128.092285 1183.657837,1142.035889 
	C1169.870361,1155.240356 1152.926147,1160.461914 1133.962524,1160.445557 
	C1019.141724,1160.346558 904.320801,1160.396729 788.999878,1160.396729 
M566.500061,471.494202 
	C490.337463,471.494293 414.174835,471.493103 338.012238,471.495148 
	C308.846924,471.495941 279.681549,471.546204 250.516403,471.477966 
	C243.666382,471.461945 237.631943,473.367615 232.982239,478.444763 
	C228.100830,483.775055 226.906387,490.340942 226.908737,497.441437 
	C226.973846,694.432312 226.961044,891.423157 226.962891,1088.414062 
	C226.962906,1090.247314 226.626144,1092.173584 227.071350,1093.894897 
	C228.099884,1097.871582 228.865814,1102.128784 230.898926,1105.590576 
	C235.742447,1113.837646 243.807419,1115.611572 252.840515,1115.609497 
	C546.493591,1115.541138 840.146729,1115.552856 1133.799805,1115.548340 
	C1135.799194,1115.548340 1137.819946,1115.665283 1139.794189,1115.425537 
	C1148.585815,1114.358276 1155.380371,1110.201416 1158.171753,1101.539551 
	C1159.566284,1097.212280 1160.033691,1092.417969 1160.035767,1087.834473 
	C1160.123169,891.343567 1160.111328,694.852600 1160.108765,498.361694 
	C1160.108765,496.362000 1160.280029,494.334686 1160.018311,492.367279 
	C1158.816528,483.335541 1154.945068,475.960785 1145.710083,473.174164 
	C1141.358887,471.861145 1136.566650,471.562866 1131.973999,471.561005 
	C943.816040,471.484589 755.658081,471.494476 566.500061,471.494202 
M985.500000,426.924744 
	C1032.657471,426.924774 1079.815063,426.970917 1126.972290,426.888733 
	C1137.321167,426.870697 1147.624634,426.803345 1157.626221,430.028717 
	C1158.158325,430.200317 1158.858398,429.851410 1159.609009,429.722778 
	C1159.787842,428.781982 1160.071045,427.983429 1160.071655,427.184662 
	C1160.083130,411.687897 1160.433960,396.176025 1159.806030,380.704132 
	C1159.631958,376.410339 1157.241943,371.722870 1154.628052,368.114746 
	C1149.567261,361.129059 1141.766602,360.098938 1133.603516,360.101379 
	C936.640259,360.159790 739.676941,360.076538 542.713867,360.281006 
	C526.790039,360.297516 513.170349,355.514069 503.224243,343.547668 
	C492.523285,330.673126 483.272797,316.585022 473.522461,302.931427 
	C467.819763,294.945892 462.531616,286.662354 456.761414,278.727753 
	C453.102844,273.696869 448.421265,271.062958 441.534515,271.092041 
	C378.380768,271.359131 315.224762,271.405792 252.071030,271.134827 
	C237.056503,271.070374 226.647522,281.329742 226.807327,296.238098 
	C227.235931,336.226044 226.951477,376.221619 226.951569,416.214142 
	C226.951569,419.713470 226.988403,423.213043 226.958511,426.712067 
	C226.934113,429.566345 227.903336,430.206940 230.950211,429.766846 
	C239.634323,428.512512 248.400848,427.045197 257.135742,427.040039 
	C499.590424,426.896820 742.045227,426.924896 985.500000,426.924744 
z"/>
<path fill="#FEFFFF" opacity="1.000000" stroke="none" 
	d="
M567.000122,471.493835 
	C755.658081,471.494476 943.816040,471.484589 1131.973999,471.561005 
	C1136.566650,471.562866 1141.358887,471.861145 1145.710083,473.174164 
	C1154.945068,475.960785 1158.816528,483.335541 1160.018311,492.367279 
	C1160.280029,494.334686 1160.108765,496.362000 1160.108765,498.361694 
	C1160.111328,694.852600 1160.123169,891.343567 1160.035767,1087.834473 
	C1160.033691,1092.417969 1159.566284,1097.212280 1158.171753,1101.539551 
	C1155.380371,1110.201416 1148.585815,1114.358276 1139.794189,1115.425537 
	C1137.819946,1115.665283 1135.799194,1115.548340 1133.799805,1115.548340 
	C840.146729,1115.552856 546.493591,1115.541138 252.840515,1115.609497 
	C243.807419,1115.611572 235.742447,1113.837646 230.898926,1105.590576 
	C228.865814,1102.128784 228.099884,1097.871582 227.071350,1093.894897 
	C226.626144,1092.173584 226.962906,1090.247314 226.962891,1088.414062 
	C226.961044,891.423157 226.973846,694.432312 226.908737,497.441437 
	C226.906387,490.340942 228.100830,483.775055 232.982239,478.444763 
	C237.631943,473.367615 243.666382,471.461945 250.516403,471.477966 
	C279.681549,471.546204 308.846924,471.495941 338.012238,471.495148 
	C414.174835,471.493103 490.337463,471.494293 567.000122,471.493835 
M379.005981,960.113647 
	C430.319672,960.113892 481.633545,960.165649 532.946777,960.013428 
	C536.923523,960.001648 538.741699,961.150696 540.191040,964.868652 
	C551.310486,993.393066 562.768860,1021.785461 573.847961,1050.325317 
	C575.633301,1054.924194 577.490295,1057.166870 582.981628,1056.914185 
	C594.951782,1056.363037 606.964783,1056.754639 618.960266,1056.731323 
	C620.670837,1056.728027 622.381104,1056.559082 624.463440,1056.446655 
	C623.914246,1054.930786 623.663147,1054.156250 623.356812,1053.404175 
	C607.291321,1013.953918 591.216064,974.507629 575.152588,935.056580 
	C543.840759,858.156128 512.522644,781.258179 481.282471,704.328613 
	C480.253082,701.793762 479.038696,700.787354 476.217468,700.823364 
	C463.724213,700.982727 451.224915,701.040039 438.734283,700.797974 
	C435.130280,700.728149 433.494385,701.963013 432.191467,705.222900 
	C423.175781,727.779785 413.985748,750.267151 404.818146,772.763184 
	C383.908661,824.072205 362.983887,875.374939 342.057678,926.677124 
	C326.726471,964.262817 311.376099,1001.840576 296.052521,1039.429321 
	C293.821777,1044.901367 291.692963,1050.414917 289.361633,1056.301514 
	C290.911255,1056.515137 291.694122,1056.716064 292.477356,1056.717285 
	C306.305450,1056.739990 320.134399,1056.658691 333.960968,1056.806641 
	C336.846588,1056.837524 337.984711,1055.628296 338.969513,1053.144043 
	C350.742371,1023.445435 362.591522,993.776978 374.543213,964.149963 
	C375.176636,962.579712 376.906281,961.451721 379.005981,960.113647 
z"/>
<path fill="#FCFEFF" opacity="1.000000" stroke="none" 
	d="
M985.000000,426.924683 
	C742.045227,426.924896 499.590424,426.896820 257.135742,427.040039 
	C248.400848,427.045197 239.634323,428.512512 230.950211,429.766846 
	C227.903336,430.206940 226.934113,429.566345 226.958511,426.712067 
	C226.988403,423.213043 226.951569,419.713470 226.951569,416.214142 
	C226.951477,376.221619 227.235931,336.226044 226.807327,296.238098 
	C226.647522,281.329742 237.056503,271.070374 252.071030,271.134827 
	C315.224762,271.405792 378.380768,271.359131 441.534515,271.092041 
	C448.421265,271.062958 453.102844,273.696869 456.761414,278.727753 
	C462.531616,286.662354 467.819763,294.945892 473.522461,302.931427 
	C483.272797,316.585022 492.523285,330.673126 503.224243,343.547668 
	C513.170349,355.514069 526.790039,360.297516 542.713867,360.281006 
	C739.676941,360.076538 936.640259,360.159790 1133.603516,360.101379 
	C1141.766602,360.098938 1149.567261,361.129059 1154.628052,368.114746 
	C1157.241943,371.722870 1159.631958,376.410339 1159.806030,380.704132 
	C1160.433960,396.176025 1160.083130,411.687897 1160.071655,427.184662 
	C1160.071045,427.983429 1159.787842,428.781982 1159.609009,429.722778 
	C1158.858398,429.851410 1158.158325,430.200317 1157.626221,430.028717 
	C1147.624634,426.803345 1137.321167,426.870697 1126.972290,426.888733 
	C1079.815063,426.970917 1032.657471,426.924774 985.000000,426.924683 
z"/>
<path fill="#029DFF" opacity="1.000000" stroke="none" 
	d="
M378.565796,960.115723 
	C376.906281,961.451721 375.176636,962.579712 374.543213,964.149963 
	C362.591522,993.776978 350.742371,1023.445435 338.969513,1053.144043 
	C337.984711,1055.628296 336.846588,1056.837524 333.960968,1056.806641 
	C320.134399,1056.658691 306.305450,1056.739990 292.477356,1056.717285 
	C291.694122,1056.716064 290.911255,1056.515137 289.361633,1056.301514 
	C291.692963,1050.414917 293.821777,1044.901367 296.052521,1039.429321 
	C311.376099,1001.840576 326.726471,964.262817 342.057678,926.677124 
	C362.983887,875.374939 383.908661,824.072205 404.818146,772.763184 
	C413.985748,750.267151 423.175781,727.779785 432.191467,705.222900 
	C433.494385,701.963013 435.130280,700.728149 438.734283,700.797974 
	C451.224915,701.040039 463.724213,700.982727 476.217468,700.823364 
	C479.038696,700.787354 480.253082,701.793762 481.282471,704.328613 
	C512.522644,781.258179 543.840759,858.156128 575.152588,935.056580 
	C591.216064,974.507629 607.291321,1013.953918 623.356812,1053.404175 
	C623.663147,1054.156250 623.914246,1054.930786 624.463440,1056.446655 
	C622.381104,1056.559082 620.670837,1056.728027 618.960266,1056.731323 
	C606.964783,1056.754639 594.951782,1056.363037 582.981628,1056.914185 
	C577.490295,1057.166870 575.633301,1054.924194 573.847961,1050.325317 
	C562.768860,1021.785461 551.310486,993.393066 540.191040,964.868652 
	C538.741699,961.150696 536.923523,960.001648 532.946777,960.013428 
	C481.633545,960.165649 430.319672,960.113892 378.565796,960.115723 
M498.617554,862.870239 
	C484.890076,828.790527 471.162628,794.710815 456.913971,759.337219 
	C435.396454,812.710327 414.509308,864.519836 393.481476,916.678345 
	C436.270081,916.678345 477.965302,916.678345 520.354858,916.678345 
	C513.072693,898.653870 505.988861,881.120056 498.617554,862.870239 
z"/>
<path fill="#FDFEFF" opacity="1.000000" stroke="none" 
	d="
M498.761261,863.228271 
	C505.988861,881.120056 513.072693,898.653870 520.354858,916.678345 
	C477.965302,916.678345 436.270081,916.678345 393.481476,916.678345 
	C414.509308,864.519836 435.396454,812.710327 456.913971,759.337219 
	C471.162628,794.710815 484.890076,828.790527 498.761261,863.228271 
z"/>
</svg>